<svg xmlns="http://www.w3.org/2000/svg" xmlns:xlink="http://www.w3.org/1999/xlink" width="500" zoomAndPan="magnify" viewBox="0 0 375 374.999991" height="500" preserveAspectRatio="xMidYMid meet" version="1.0"><defs><g/></defs><g fill="#f8f8f8" fill-opacity="1"><g transform="translate(150.918796, 209.369129)"><g><path d="M 4.898438 0 C 4.753906 0.144531 4.898438 0.433594 5.039062 0.433594 C 5.183594 0.433594 5.183594 0.433594 5.183594 0.433594 C 5.328125 0.433594 5.472656 0.289062 5.617188 0.144531 L 30.386719 -79.496094 L 55.15625 0.144531 C 55.300781 0.289062 55.445312 0.433594 55.589844 0.433594 L 67.832031 0.433594 C 67.832031 0.433594 67.976562 0.433594 68.117188 0.289062 C 68.117188 0.144531 68.117188 0.144531 68.117188 0 L 36.867188 -100.523438 C 36.722656 -100.667969 36.722656 -100.667969 36.722656 -100.667969 C 36.722656 -100.667969 36.722656 -100.667969 36.578125 -100.667969 C 36.578125 -100.667969 36.578125 -100.808594 36.4375 -100.808594 C 36.4375 -100.808594 36.4375 -100.667969 36.4375 -100.667969 C 36.292969 -100.667969 36.292969 -100.667969 36.292969 -100.667969 C 36.292969 -100.667969 36.292969 -100.667969 36.148438 -100.523438 L 29.957031 -80.792969 Z M 4.898438 0 "/></g></g></g><g fill="#f8f8f8" fill-opacity="1"><g transform="translate(236.99834, 175.759442)"><g><path d="M 0.433594 -55.445312 C 0.433594 -68.984375 -4.753906 -81.65625 -14.402344 -91.160156 C -14.546875 -91.304688 -14.691406 -91.304688 -14.976562 -91.160156 C -15.121094 -91.015625 -15.121094 -90.730469 -14.976562 -90.585938 C -5.472656 -81.222656 -0.289062 -68.695312 -0.289062 -55.445312 C -0.289062 -34.417969 -22.609375 -17.28125 -50.117188 -17.28125 C -77.625 -17.28125 -99.945312 -34.417969 -99.945312 -55.445312 C -99.945312 -68.695312 -94.761719 -81.222656 -85.402344 -90.585938 C -85.257812 -90.730469 -85.257812 -91.015625 -85.402344 -91.160156 C -85.542969 -91.304688 -85.832031 -91.304688 -85.976562 -91.160156 C -95.480469 -81.65625 -100.667969 -68.984375 -100.667969 -55.445312 C -100.667969 -41.910156 -95.480469 -29.234375 -85.976562 -19.585938 C -66.246094 0.144531 -34.132812 0.144531 -14.402344 -19.585938 C -4.753906 -29.234375 0.433594 -41.910156 0.433594 -55.445312 Z M 0.433594 -55.445312 "/></g></g></g><g fill="#f8f8f8" fill-opacity="1"><g transform="translate(6.87891, 246.115383)"><g><path d="M 14.832031 -21.695312 C 13.972656 -21.695312 13.117188 -21.636719 12.289062 -21.636719 C 11.523438 -21.636719 10.785156 -21.605469 10.019531 -21.695312 C 9.683594 -21.726562 9.347656 -21.664062 9.039062 -21.636719 C 8.550781 -20.53125 8.242188 -19.429688 7.785156 -18.386719 C 7.292969 -17.253906 7.019531 -16.058594 6.433594 -14.953125 C 6.007812 -14.15625 5.882812 -13.238281 5.546875 -12.410156 C 5.300781 -11.859375 5.179688 -11.246094 4.933594 -10.726562 C 4.382812 -9.59375 3.921875 -8.398438 3.433594 -7.230469 C 3.1875 -6.648438 3.035156 -6.066406 2.757812 -5.515625 C 2.328125 -4.71875 2.054688 -3.859375 1.777344 -3.035156 C 1.53125 -2.238281 1.132812 -1.5 0.828125 -0.734375 C 0.703125 -0.398438 0.765625 -0.214844 0.890625 0 C 1.839844 -0.03125 2.757812 -0.09375 3.832031 -0.0625 C 4.136719 -0.550781 4.289062 -1.285156 4.597656 -1.929688 C 4.933594 -2.636719 5.179688 -3.339844 5.484375 -4.105469 C 8.121094 -3.953125 10.757812 -4.320312 13.421875 -4.074219 C 13.914062 -2.695312 14.496094 -1.316406 14.953125 0.0625 C 15.230469 0.183594 15.476562 0 15.691406 0.03125 C 17.101562 0.0625 18.507812 0.03125 19.917969 -0.0625 C 20.808594 -0.121094 21.695312 0 22.585938 -0.152344 C 22.859375 -0.214844 23.230469 -0.03125 23.445312 -0.429688 C 20.5 -7.386719 18.171875 -14.585938 15.167969 -21.574219 C 15.109375 -21.605469 14.953125 -21.695312 14.832031 -21.695312 Z M 9.621094 -14.800781 C 10.574219 -12.289062 11.371094 -9.714844 12.320312 -7.171875 C 10.386719 -7.109375 8.519531 -6.988281 6.648438 -7.109375 C 7.691406 -9.621094 8.425781 -12.289062 9.621094 -14.800781 Z M 9.621094 -14.800781 "/></g></g></g><g fill="#f8f8f8" fill-opacity="1"><g transform="translate(31.149424, 246.115383)"><g><path d="M 15.351562 -16.242188 C 12.472656 -16.519531 10.695312 -15.628906 8.703125 -13.730469 C 8.152344 -14.433594 7.90625 -15.351562 7.292969 -15.933594 C 7.324219 -16.121094 2.972656 -15.996094 1.839844 -15.875 C 2.082031 -10.574219 2.238281 -5.242188 2.175781 -0.09375 C 2.421875 0.121094 2.605469 0.09375 2.789062 0.0625 C 3.585938 0.03125 4.382812 0.03125 5.179688 -0.03125 C 6.28125 -0.152344 7.386719 -0.0625 8.488281 -0.09375 C 9.070312 -0.09375 9.195312 -0.214844 9.253906 -0.796875 L 9.253906 -1.285156 C 9.222656 -1.777344 9.195312 -2.296875 9.222656 -2.789062 C 9.285156 -5.394531 9.164062 -7.691406 9.222656 -10.296875 C 9.347656 -10.511719 9.5625 -10.632812 9.746094 -10.816406 C 10.972656 -11.859375 12.042969 -11.921875 13.421875 -11.796875 C 13.972656 -11.738281 14.527344 -11.554688 14.984375 -11.214844 C 15.136719 -11.09375 15.292969 -11.0625 15.476562 -11.214844 C 15.660156 -11.707031 15.535156 -12.257812 15.535156 -12.808594 C 15.566406 -13.332031 15.566406 -14.003906 15.535156 -14.527344 C 15.507812 -15.078125 15.566406 -15.566406 15.351562 -16.242188 Z M 15.351562 -16.242188 "/></g></g></g><g fill="#f8f8f8" fill-opacity="1"><g transform="translate(47.912019, 246.115383)"><g><path d="M 9.039062 -16.546875 C 8.457031 -16.546875 7.875 -16.394531 7.324219 -16.242188 C 5.425781 -15.722656 4.230469 -15.015625 3.21875 -13.484375 C 2.605469 -12.625 2.207031 -11.828125 1.871094 -10.847656 C 1.378906 -9.46875 1.285156 -8.058594 1.472656 -6.621094 C 1.59375 -5.546875 1.777344 -4.445312 2.207031 -3.371094 C 2.480469 -2.757812 3.277344 -1.285156 3.832031 -1.074219 C 4.445312 -0.460938 5.148438 -0.152344 6.007812 0.03125 C 7.019531 0.277344 8.058594 0.429688 9.132812 0.398438 C 10.664062 0.398438 12.289062 0.09375 13.605469 -0.765625 C 14.097656 -1.074219 14.402344 -1.132812 14.953125 -1.53125 C 14.953125 -1.042969 14.984375 -0.675781 14.953125 -0.277344 C 14.769531 1.625 13.851562 2.421875 11.921875 2.878906 C 10.972656 3.09375 9.835938 3.09375 8.917969 3.003906 C 7.570312 2.820312 6.589844 2.667969 5.394531 2.023438 C 4.933594 1.777344 4.566406 1.441406 4.074219 1.316406 C 3.769531 1.378906 3.648438 1.59375 3.492188 1.777344 C 3.15625 2.207031 2.605469 2.972656 2.328125 3.433594 C 2.023438 3.921875 2.207031 4.105469 2.820312 4.597656 C 3.554688 5.085938 4.015625 5.269531 4.902344 5.640625 C 7.660156 6.773438 11.03125 6.589844 13.945312 6.34375 C 18.847656 5.730469 20.777344 4.167969 21.511719 2.605469 C 22.371094 1.074219 22.433594 0 22.492188 -1.683594 C 22.492188 -2.453125 22.460938 -3.21875 22.460938 -3.984375 C 22.402344 -5.363281 22.648438 -6.710938 22.554688 -8.058594 C 22.402344 -10.359375 22.585938 -12.6875 22.617188 -14.984375 C 22.617188 -15.875 22.460938 -16.089844 21.574219 -16.121094 C 20.59375 -16.148438 19.613281 -16.027344 18.664062 -15.964844 C 18.171875 -15.933594 17.710938 -16.058594 17.222656 -15.933594 C 16.703125 -15.445312 16.148438 -14.925781 15.597656 -14.464844 C 15.292969 -14.554688 15.078125 -14.769531 14.863281 -14.925781 C 14.003906 -15.660156 12.960938 -16.089844 11.921875 -16.332031 C 11 -16.546875 10.019531 -16.519531 9.039062 -16.546875 Z M 11.675781 -12.6875 C 12.6875 -13.054688 13.667969 -12.933594 14.464844 -12.136719 C 14.800781 -11.796875 15.015625 -11.460938 14.953125 -10.941406 C 14.925781 -10.601562 14.925781 -10.234375 14.925781 -9.898438 L 14.863281 -6.832031 C 14.863281 -6.3125 14.925781 -5.792969 14.925781 -5.269531 C 14.925781 -4.8125 14.800781 -4.445312 14.402344 -4.136719 C 13.914062 -3.738281 13.484375 -3.308594 12.839844 -3.125 C 11.953125 -2.910156 11.277344 -3.21875 10.726562 -3.859375 C 10.144531 -4.503906 9.867188 -5.269531 9.683594 -6.066406 C 9.347656 -7.386719 9.195312 -8.457031 9.5 -9.804688 C 9.804688 -11.0625 10.359375 -12.195312 11.675781 -12.6875 Z M 11.675781 -12.6875 "/></g></g></g><g fill="#f8f8f8" fill-opacity="1"><g transform="translate(72.427699, 246.115383)"><g><path d="M 11.582031 -16.519531 C 10.328125 -16.640625 9.132812 -16.519531 7.875 -16.210938 C 6.863281 -15.964844 6.464844 -15.722656 5.699219 -15.351562 C 4.78125 -14.925781 4.074219 -14.3125 3.460938 -13.546875 C 2.359375 -12.167969 1.746094 -10.601562 1.472656 -8.917969 C 1.257812 -7.570312 1.410156 -6.222656 1.839844 -4.902344 C 2.296875 -3.585938 3.125 -2.574219 4.167969 -1.777344 C 5.179688 -1.011719 6.035156 -0.492188 7.261719 -0.121094 C 8.242188 0.183594 8.886719 0.183594 9.867188 0.335938 C 10.878906 0.519531 11.921875 0.460938 12.902344 0.335938 C 14.527344 0.214844 15.476562 -0.09375 16.917969 -0.859375 C 17.652344 -1.257812 18.417969 -1.929688 19.03125 -2.605469 C 18.480469 -3.738281 17.804688 -5.054688 17.589844 -4.902344 C 17.253906 -4.75 16.976562 -4.351562 16.703125 -4.136719 C 15.660156 -3.433594 15.109375 -3.003906 13.820312 -2.878906 C 12.777344 -2.757812 11.769531 -2.820312 10.847656 -3.308594 C 9.683594 -3.890625 8.980469 -5.300781 9.164062 -6.558594 C 9.4375 -6.589844 9.746094 -6.679688 10.019531 -6.679688 C 11.523438 -6.589844 12.992188 -6.710938 14.496094 -6.621094 C 16.148438 -6.527344 16.976562 -6.679688 18.632812 -6.679688 C 18.847656 -6.679688 19.214844 -6.589844 19.246094 -6.804688 C 19.277344 -6.894531 19.304688 -7.078125 19.304688 -7.171875 C 19.398438 -9.132812 19.277344 -10.664062 18.386719 -12.320312 C 18.140625 -12.75 17.957031 -13.238281 17.589844 -13.605469 C 15.78125 -15.382812 14.128906 -16.273438 11.582031 -16.519531 Z M 11.980469 -12.808594 C 12.105469 -12.6875 12.195312 -12.5625 12.257812 -12.410156 C 12.535156 -11.460938 12.71875 -10.511719 12.441406 -9.4375 C 11.277344 -9.5 10.203125 -9.316406 9.039062 -9.4375 C 9.101562 -10.511719 9.222656 -11.554688 9.835938 -12.472656 C 10.328125 -13.238281 11.371094 -13.390625 11.980469 -12.808594 Z M 11.980469 -12.808594 "/></g></g></g><g fill="#f8f8f8" fill-opacity="1"><g transform="translate(93.143449, 246.115383)"><g><path d="M 16.945312 -16.242188 C 14.894531 -16.730469 12.992188 -16.273438 11.09375 -15.566406 C 10.203125 -15.230469 9.4375 -14.742188 8.640625 -14.1875 C 8.089844 -14.648438 7.816406 -15.476562 7.417969 -15.996094 C 5.054688 -16.273438 3.707031 -16.027344 1.871094 -15.996094 C 1.808594 -10.695312 1.839844 -5.269531 2.023438 0 L 8.304688 0 C 8.703125 0 9.101562 0.03125 9.4375 -0.277344 C 9.46875 -1.59375 9.347656 -2.851562 9.316406 -4.136719 C 9.253906 -6.128906 9.285156 -8.089844 9.285156 -10.082031 C 9.285156 -10.542969 9.378906 -11 9.5 -11.398438 C 10.203125 -11.921875 10.816406 -12.503906 11.613281 -12.808594 C 12.871094 -13.269531 14.21875 -12.472656 14.035156 -11.0625 C 14.035156 -10.113281 14.003906 -9.316406 14.066406 -8.425781 C 14.15625 -7.171875 14.128906 -5.882812 14.128906 -4.597656 C 14.128906 -3.433594 14.15625 -2.238281 14.15625 -1.042969 C 14.15625 -0.765625 14.097656 -0.429688 14.25 -0.121094 C 14.527344 0.152344 14.800781 0.152344 15.136719 0.152344 C 15.90625 0.09375 16.546875 0.0625 17.3125 0.0625 C 18.632812 0.03125 19.949219 0.03125 21.269531 0 C 21.421875 0 21.542969 0 21.664062 -0.152344 C 21.605469 -2.511719 21.605469 -4.902344 21.511719 -7.292969 C 21.453125 -8.734375 21.542969 -10.175781 21.453125 -11.613281 C 21.328125 -13.605469 20.226562 -14.894531 18.570312 -15.8125 C 18.050781 -16.089844 17.5 -16.121094 16.945312 -16.242188 Z M 16.945312 -16.242188 "/></g></g></g><g fill="#f8f8f8" fill-opacity="1"><g transform="translate(116.709145, 246.115383)"><g><path d="M 8.304688 -20.285156 C 7.570312 -18.96875 6.679688 -17.988281 5.546875 -17.160156 C 4.351562 -16.304688 2.910156 -16.273438 1.53125 -15.8125 C 1.65625 -14.894531 1.441406 -13.972656 1.714844 -13.054688 C 2.390625 -12.933594 3.035156 -13.085938 3.648438 -12.960938 C 3.800781 -12.777344 3.769531 -12.503906 3.769531 -12.320312 C 3.769531 -10.601562 3.738281 -8.855469 3.738281 -7.109375 C 3.738281 -6.496094 3.707031 -5.882812 3.707031 -5.269531 C 3.707031 -4.503906 3.890625 -3.675781 4.105469 -2.910156 C 4.199219 -2.511719 4.382812 -2.082031 4.65625 -1.746094 C 5.761719 -0.613281 7.078125 0 8.640625 0.214844 C 10.386719 0.460938 12.105469 0.304688 13.757812 -0.304688 C 14.15625 -0.429688 14.617188 -0.492188 14.953125 -0.917969 C 14.832031 -1.714844 15.015625 -2.574219 14.648438 -3.402344 C 14.25 -3.308594 13.945312 -3.21875 13.636719 -3.15625 C 12.992188 -3.066406 12.378906 -3.09375 11.921875 -3.617188 C 11.613281 -3.953125 11.371094 -4.320312 11.214844 -4.78125 C 11.03125 -5.453125 11.0625 -6.128906 11 -6.832031 C 10.910156 -8.550781 11.15625 -10.296875 11.09375 -12.011719 C 11.09375 -12.320312 11.03125 -12.75 11.246094 -13.023438 C 12.378906 -13.117188 13.546875 -13.117188 14.648438 -13.117188 C 14.925781 -13.300781 14.894531 -13.484375 14.894531 -13.730469 C 14.894531 -14.15625 14.863281 -14.617188 14.894531 -15.046875 C 14.894531 -15.324219 14.925781 -15.660156 14.863281 -15.933594 C 14.585938 -16.027344 14.28125 -16.058594 14.003906 -16.027344 C 13.085938 -15.964844 12.136719 -16.121094 11.125 -15.996094 L 11.125 -20.257812 C 10.082031 -20.441406 9.164062 -20.257812 8.304688 -20.285156 Z M 8.304688 -20.285156 "/></g></g></g><g fill="#f8f8f8" fill-opacity="1"><g transform="translate(132.674979, 246.115383)"><g><path d="M 4.167969 -22.371094 C 3.21875 -22.0625 2.421875 -21.664062 2.054688 -20.65625 C 1.929688 -20.285156 1.839844 -19.917969 1.929688 -19.582031 C 2.175781 -17.925781 3.339844 -17.285156 4.71875 -17.191406 C 5.210938 -17.191406 5.667969 -17.128906 6.128906 -17.160156 C 7.386719 -17.253906 8.457031 -17.683594 9.101562 -18.9375 C 9.378906 -19.488281 9.40625 -20.65625 8.886719 -21.238281 C 8.457031 -21.695312 7.96875 -22.09375 7.324219 -22.339844 C 6.25 -22.769531 5.210938 -22.707031 4.167969 -22.371094 Z M 9.039062 -16.148438 C 6.710938 -16.089844 4.199219 -16.210938 2.082031 -16.058594 C 1.871094 -15.84375 1.839844 -15.660156 1.839844 -15.476562 C 1.871094 -15.015625 1.871094 -14.34375 1.898438 -13.914062 C 2.023438 -12.65625 1.960938 -11.582031 1.960938 -10.359375 C 1.960938 -9.132812 1.839844 -7.90625 1.839844 -6.648438 C 1.871094 -4.996094 1.992188 -3.371094 1.960938 -1.714844 C 1.960938 -1.164062 1.898438 -0.644531 1.992188 -0.03125 C 4.351562 0.03125 6.710938 0.03125 9.039062 -0.0625 C 9.316406 -0.335938 9.285156 -0.582031 9.253906 -0.828125 C 9.195312 -1.257812 9.164062 -1.65625 9.195312 -2.082031 C 9.195312 -3.585938 9.253906 -5.027344 9.253906 -6.496094 C 9.222656 -8 9.222656 -9.5 9.222656 -11 C 9.222656 -12.320312 9.285156 -13.851562 9.285156 -15.167969 C 9.316406 -15.476562 9.285156 -15.8125 9.039062 -16.148438 Z M 9.039062 -16.148438 "/></g></g></g><g fill="#f8f8f8" fill-opacity="1"><g transform="translate(143.737673, 246.115383)"><g><path d="M 16.945312 -16.242188 C 14.894531 -16.730469 12.992188 -16.273438 11.09375 -15.566406 C 10.203125 -15.230469 9.4375 -14.742188 8.640625 -14.1875 C 8.089844 -14.648438 7.816406 -15.476562 7.417969 -15.996094 C 5.054688 -16.273438 3.707031 -16.027344 1.871094 -15.996094 C 1.808594 -10.695312 1.839844 -5.269531 2.023438 0 L 8.304688 0 C 8.703125 0 9.101562 0.03125 9.4375 -0.277344 C 9.46875 -1.59375 9.347656 -2.851562 9.316406 -4.136719 C 9.253906 -6.128906 9.285156 -8.089844 9.285156 -10.082031 C 9.285156 -10.542969 9.378906 -11 9.5 -11.398438 C 10.203125 -11.921875 10.816406 -12.503906 11.613281 -12.808594 C 12.871094 -13.269531 14.21875 -12.472656 14.035156 -11.0625 C 14.035156 -10.113281 14.003906 -9.316406 14.066406 -8.425781 C 14.15625 -7.171875 14.128906 -5.882812 14.128906 -4.597656 C 14.128906 -3.433594 14.15625 -2.238281 14.15625 -1.042969 C 14.15625 -0.765625 14.097656 -0.429688 14.25 -0.121094 C 14.527344 0.152344 14.800781 0.152344 15.136719 0.152344 C 15.90625 0.09375 16.546875 0.0625 17.3125 0.0625 C 18.632812 0.03125 19.949219 0.03125 21.269531 0 C 21.421875 0 21.542969 0 21.664062 -0.152344 C 21.605469 -2.511719 21.605469 -4.902344 21.511719 -7.292969 C 21.453125 -8.734375 21.542969 -10.175781 21.453125 -11.613281 C 21.328125 -13.605469 20.226562 -14.894531 18.570312 -15.8125 C 18.050781 -16.089844 17.5 -16.121094 16.945312 -16.242188 Z M 16.945312 -16.242188 "/></g></g></g><g fill="#f8f8f8" fill-opacity="1"><g transform="translate(167.303368, 246.115383)"><g><path d="M 12.503906 -16.457031 C 11.183594 -16.488281 9.867188 -16.457031 8.550781 -16.363281 C 6.804688 -16.210938 5.117188 -15.78125 3.492188 -15.136719 C 3.1875 -15.015625 2.820312 -14.925781 2.636719 -14.464844 C 3.1875 -13.515625 3.921875 -11.921875 4.257812 -11.707031 C 4.351562 -11.613281 4.871094 -11.953125 5.179688 -12.105469 C 6.007812 -12.5625 6.558594 -12.625 7.417969 -12.839844 C 8.609375 -13.148438 9.683594 -13.332031 10.910156 -12.902344 C 11.953125 -12.535156 12.5625 -11.738281 12.441406 -10.601562 C 12.226562 -10.542969 11.859375 -10.632812 11.644531 -10.601562 C 11.09375 -10.574219 10.574219 -10.664062 10.019531 -10.664062 C 8.519531 -10.726562 7.019531 -10.542969 5.578125 -10.144531 C 4.136719 -9.746094 2.972656 -8.980469 2.207031 -7.691406 C 1.410156 -6.3125 1.195312 -4.871094 1.53125 -3.339844 C 1.898438 -1.714844 2.941406 -0.644531 4.445312 0 C 5.792969 0.550781 7.230469 0.519531 8.671875 0.335938 C 10.175781 0.121094 11.554688 -0.398438 12.75 -1.410156 C 12.871094 -1.5 12.960938 -1.625 13.148438 -1.625 C 13.820312 -1.285156 14.128906 -0.550781 14.710938 0.03125 C 16.332031 0.03125 17.957031 -0.152344 19.550781 0 C 19.734375 -0.246094 19.734375 -0.429688 19.703125 -0.644531 C 19.582031 -1.898438 19.613281 -3.277344 19.644531 -4.535156 C 19.675781 -6.464844 19.644531 -8.398438 19.613281 -10.328125 C 19.582031 -11.398438 19.277344 -12.410156 18.601562 -13.300781 C 18.265625 -13.730469 17.867188 -14.097656 17.4375 -14.433594 C 16.027344 -15.628906 14.402344 -16.394531 12.503906 -16.457031 Z M 12.5625 -7.660156 C 12.5625 -6.34375 12.472656 -5.117188 12.59375 -3.921875 C 12.257812 -3.492188 11.859375 -3.1875 11.398438 -3.003906 C 10.386719 -2.542969 9.007812 -3.277344 8.855469 -4.414062 C 8.671875 -6.007812 9.285156 -7.171875 11.09375 -7.570312 C 11.554688 -7.660156 12.042969 -7.660156 12.5625 -7.660156 Z M 12.5625 -7.660156 "/></g></g></g><g fill="#f8f8f8" fill-opacity="1"><g transform="translate(188.907809, 246.115383)"><g/></g></g><g fill="#f8f8f8" fill-opacity="1"><g transform="translate(197.181853, 246.115383)"><g><path d="M 13.789062 -21.851562 C 13.207031 -21.851562 12.625 -21.726562 12.042969 -21.695312 C 11.15625 -21.636719 10.265625 -21.390625 9.40625 -21.113281 C 8.089844 -20.746094 6.863281 -20.132812 5.730469 -19.398438 C 5.425781 -19.183594 5.085938 -19.03125 4.871094 -18.753906 C 4.445312 -18.265625 3.984375 -17.835938 3.617188 -17.285156 C 3.066406 -16.488281 2.511719 -15.691406 2.113281 -14.769531 C 1.992188 -14.496094 1.839844 -14.1875 1.777344 -13.882812 C 1.714844 -13.390625 1.59375 -12.902344 1.5 -12.410156 C 1.378906 -11.796875 1.378906 -11.183594 1.378906 -10.574219 C 1.378906 -10.050781 1.5 -9.5625 1.53125 -9.039062 C 1.5625 -8.425781 2.269531 -6.007812 2.421875 -5.699219 C 2.878906 -4.6875 4.105469 -2.789062 4.71875 -2.453125 C 5.179688 -2.175781 5.578125 -1.808594 6.035156 -1.5625 C 7.203125 -0.917969 8.367188 -0.367188 9.652344 -0.0625 C 10.726562 0.183594 11.828125 0.429688 12.992188 0.398438 C 13.851562 0.398438 14.710938 0.519531 15.566406 0.460938 C 16.730469 0.335938 17.867188 0.183594 18.96875 -0.183594 C 20.074219 -0.550781 21.144531 -1.042969 22.1875 -1.53125 C 22.769531 -1.808594 23.257812 -2.175781 23.8125 -2.480469 C 24.300781 -2.757812 24.332031 -3.15625 24.027344 -3.585938 C 23.71875 -3.953125 23.472656 -4.351562 23.167969 -4.6875 C 22.953125 -4.964844 22.800781 -5.269531 22.585938 -5.515625 C 22.433594 -5.546875 22.277344 -5.484375 22.09375 -5.394531 C 21.605469 -4.996094 21.113281 -4.597656 20.53125 -4.320312 C 19.488281 -3.800781 18.386719 -3.433594 17.285156 -3.1875 C 16.917969 -3.09375 16.519531 -3.066406 16.210938 -3.09375 C 15.566406 -3.1875 14.925781 -3.1875 14.28125 -3.371094 C 13.515625 -3.585938 12.871094 -3.953125 12.195312 -4.351562 C 11.980469 -4.472656 11.769531 -4.628906 11.613281 -4.84375 C 10.878906 -5.761719 10.296875 -6.589844 10.019531 -7.9375 C 9.898438 -8.550781 9.59375 -9.101562 9.777344 -11.828125 C 9.898438 -12.75 10.203125 -13.789062 10.542969 -14.648438 C 10.816406 -15.292969 11.183594 -15.875 11.644531 -16.394531 C 12.011719 -16.792969 12.257812 -17.285156 12.75 -17.589844 C 13.175781 -17.867188 13.636719 -18.109375 14.128906 -18.265625 C 14.617188 -18.417969 15.015625 -18.539062 15.628906 -18.539062 C 16.304688 -18.539062 16.917969 -18.324219 17.558594 -18.140625 C 18.601562 -17.867188 19.304688 -17.285156 19.703125 -16.273438 C 19.949219 -15.660156 19.980469 -15.628906 20.625 -15.660156 C 20.746094 -15.691406 21.054688 -15.691406 21.144531 -15.691406 C 21.789062 -15.691406 22.25 -15.597656 22.890625 -15.628906 C 23.136719 -15.628906 23.503906 -15.566406 23.597656 -15.628906 C 23.71875 -15.691406 23.535156 -16.148438 23.503906 -16.332031 C 23.414062 -16.886719 23.167969 -17.34375 22.984375 -17.835938 C 22.890625 -18.109375 22.738281 -18.324219 22.585938 -18.570312 C 21.820312 -19.644531 20.683594 -20.257812 19.550781 -20.839844 C 18.082031 -21.574219 16.457031 -21.757812 14.800781 -21.789062 C 14.464844 -21.820312 14.128906 -21.851562 13.789062 -21.851562 Z M 13.789062 -21.851562 "/></g></g></g><g fill="#f8f8f8" fill-opacity="1"><g transform="translate(222.770085, 246.115383)"><g><path d="M 9.621094 -16.394531 C 8.703125 -16.273438 7.785156 -15.964844 6.894531 -15.660156 C 4.289062 -14.742188 2.542969 -13.023438 1.746094 -10.328125 C 1.378906 -9.039062 1.316406 -7.785156 1.441406 -6.464844 C 1.5625 -5.242188 1.992188 -4.105469 2.695312 -3.125 C 3.769531 -1.65625 5.117188 -0.519531 6.988281 -0.09375 C 7.019531 -0.09375 7.046875 -0.0625 7.109375 -0.0625 C 8.121094 0.367188 9.195312 0.429688 10.265625 0.519531 C 11.214844 0.613281 12.167969 0.519531 13.085938 0.519531 C 15.414062 0.398438 17.558594 -0.121094 19.335938 -1.746094 C 19.734375 -2.082031 20.011719 -2.511719 20.347656 -2.941406 C 20.871094 -3.617188 21.238281 -4.382812 21.453125 -5.242188 C 21.726562 -6.433594 21.851562 -7.660156 21.605469 -8.886719 C 21.359375 -10.082031 21.054688 -11.214844 20.410156 -12.257812 C 19.488281 -13.699219 18.324219 -14.769531 16.792969 -15.445312 C 15.90625 -15.84375 14.984375 -16.148438 14.035156 -16.332031 C 12.5625 -16.609375 11.09375 -16.609375 9.621094 -16.394531 Z M 11.828125 -13.148438 C 12.441406 -13.085938 12.902344 -12.777344 13.300781 -12.351562 C 14.066406 -11.523438 14.1875 -10.359375 14.25 -9.285156 L 14.25 -8 C 14.25 -6.894531 14.1875 -5.792969 13.851562 -4.75 C 13.667969 -4.230469 13.421875 -3.738281 13.023438 -3.371094 C 12.074219 -2.390625 10.785156 -2.636719 9.992188 -3.648438 C 9.746094 -3.921875 9.5 -4.289062 9.378906 -4.628906 C 8.980469 -5.667969 8.917969 -6.773438 8.855469 -7.84375 C 8.765625 -9.195312 9.195312 -10.449219 9.652344 -11.707031 C 9.992188 -12.65625 10.878906 -13.238281 11.828125 -13.148438 Z M 11.828125 -13.148438 "/></g></g></g><g fill="#f8f8f8" fill-opacity="1"><g transform="translate(245.876116, 246.115383)"><g><path d="M 12.71875 -16.363281 C 11.15625 -16.671875 9.59375 -16.609375 8.058594 -16.304688 C 7.046875 -16.121094 6.066406 -15.8125 5.210938 -15.199219 C 4.167969 -14.433594 3.277344 -13.515625 2.605469 -12.410156 C 1.777344 -11.09375 1.5 -9.683594 1.378906 -8.210938 C 1.285156 -6.804688 1.714844 -5.515625 2.054688 -4.199219 C 2.238281 -3.554688 2.726562 -3.125 3.125 -2.636719 C 3.921875 -1.714844 4.84375 -0.949219 5.976562 -0.519531 C 7.785156 0.183594 9.652344 0.675781 11.613281 0.304688 C 12.75 0.09375 13.882812 0 14.925781 -0.398438 C 16.332031 -0.980469 17.46875 -1.992188 18.570312 -3.003906 C 18.601562 -3.035156 18.601562 -3.125 18.664062 -3.25 C 18.019531 -3.832031 17.4375 -4.535156 16.703125 -5.027344 C 16.304688 -4.871094 16.058594 -4.597656 15.78125 -4.351562 C 14.800781 -3.585938 13.730469 -2.972656 12.410156 -3.003906 C 11.675781 -3.003906 11.03125 -3.21875 10.449219 -3.617188 C 9.777344 -4.046875 9.378906 -4.71875 9.164062 -5.394531 C 8.855469 -6.40625 8.609375 -7.445312 8.765625 -8.550781 C 8.855469 -9.132812 8.980469 -9.746094 9.101562 -10.359375 C 9.253906 -11.308594 9.714844 -12.105469 10.449219 -12.71875 C 11.125 -13.269531 11.953125 -13.515625 12.808594 -13.269531 C 13.851562 -12.992188 14.648438 -12.410156 14.925781 -11.277344 C 14.953125 -11.183594 15.015625 -11.125 15.078125 -11.0625 C 16.121094 -10.910156 17.101562 -11.183594 18.140625 -11.183594 C 18.140625 -11.339844 18.171875 -11.429688 18.140625 -11.523438 C 18.140625 -11.644531 18.140625 -11.796875 18.109375 -11.921875 C 17.773438 -13.453125 16.824219 -14.496094 15.566406 -15.292969 C 14.832031 -15.75 13.972656 -15.964844 13.175781 -16.273438 C 13.023438 -16.332031 12.871094 -16.332031 12.71875 -16.363281 Z M 12.71875 -16.363281 "/></g></g></g><g fill="#f8f8f8" fill-opacity="1"><g transform="translate(265.917695, 246.115383)"><g><path d="M 8.980469 -21.726562 C 7.816406 -21.820312 6.648438 -21.726562 5.484375 -21.664062 C 4.289062 -21.574219 3.09375 -21.695312 1.839844 -21.574219 C 1.839844 -21.082031 1.808594 -20.683594 1.871094 -20.285156 C 1.960938 -19.460938 1.992188 -18.632812 1.992188 -17.804688 C 1.992188 -16.761719 1.929688 -15.75 1.929688 -14.742188 C 1.960938 -12.777344 2.023438 -10.847656 2.054688 -8.886719 C 2.054688 -8.457031 1.992188 -8 2.023438 -7.570312 C 2.144531 -6.066406 2.023438 -4.566406 2.054688 -3.035156 C 2.054688 -2.238281 1.992188 -1.441406 1.992188 -0.613281 C 1.992188 -0.09375 2.175781 0.09375 2.636719 0.0625 C 4.535156 -0.03125 6.40625 -0.0625 8.273438 0.0625 C 8.582031 0.09375 8.886719 0.152344 9.253906 -0.0625 C 9.347656 -1.839844 9.132812 -3.675781 9.347656 -5.515625 C 9.5625 -5.792969 9.804688 -6.007812 10.144531 -6.191406 C 11.371094 -4.535156 12.167969 -3.035156 13.699219 -0.03125 C 14.769531 0.03125 15.78125 -0.09375 16.792969 -0.0625 C 17.925781 -0.03125 19.03125 -0.152344 20.132812 0 C 20.871094 0.0625 21.636719 0.03125 22.402344 -0.183594 C 22.433594 -0.550781 22.277344 -0.796875 22.125 -1.042969 C 21.390625 -2.113281 20.625 -3.277344 19.828125 -4.351562 C 18.480469 -6.160156 17.34375 -8.089844 16.148438 -10.019531 C 16.027344 -10.234375 15.875 -10.417969 15.84375 -10.726562 C 16.609375 -11.675781 17.5 -12.472656 18.632812 -12.960938 C 19.367188 -13.300781 20.195312 -13.359375 21.082031 -13.085938 C 21.269531 -14.003906 21.113281 -14.925781 21.238281 -15.78125 C 21.082031 -15.996094 20.871094 -16.210938 20.59375 -16.304688 C 19.613281 -16.546875 18.847656 -16.519531 17.898438 -16.121094 C 16.917969 -15.660156 16.058594 -15.015625 15.230469 -14.371094 C 13.421875 -13.023438 11.738281 -11.523438 9.867188 -10.265625 C 9.683594 -10.175781 9.5625 -9.992188 9.316406 -9.992188 C 9.164062 -10.296875 9.164062 -10.601562 9.164062 -10.878906 C 9.285156 -12.167969 9.164062 -13.453125 9.164062 -14.710938 C 9.164062 -16.242188 9.195312 -17.773438 9.164062 -19.304688 C 9.164062 -20.101562 9.253906 -20.898438 8.980469 -21.726562 Z M 8.980469 -21.726562 "/></g></g></g><g fill="#f8f8f8" fill-opacity="1"><g transform="translate(288.655983, 246.115383)"><g><path d="M 8.304688 -20.285156 C 7.570312 -18.96875 6.679688 -17.988281 5.546875 -17.160156 C 4.351562 -16.304688 2.910156 -16.273438 1.53125 -15.8125 C 1.65625 -14.894531 1.441406 -13.972656 1.714844 -13.054688 C 2.390625 -12.933594 3.035156 -13.085938 3.648438 -12.960938 C 3.800781 -12.777344 3.769531 -12.503906 3.769531 -12.320312 C 3.769531 -10.601562 3.738281 -8.855469 3.738281 -7.109375 C 3.738281 -6.496094 3.707031 -5.882812 3.707031 -5.269531 C 3.707031 -4.503906 3.890625 -3.675781 4.105469 -2.910156 C 4.199219 -2.511719 4.382812 -2.082031 4.65625 -1.746094 C 5.761719 -0.613281 7.078125 0 8.640625 0.214844 C 10.386719 0.460938 12.105469 0.304688 13.757812 -0.304688 C 14.15625 -0.429688 14.617188 -0.492188 14.953125 -0.917969 C 14.832031 -1.714844 15.015625 -2.574219 14.648438 -3.402344 C 14.25 -3.308594 13.945312 -3.21875 13.636719 -3.15625 C 12.992188 -3.066406 12.378906 -3.09375 11.921875 -3.617188 C 11.613281 -3.953125 11.371094 -4.320312 11.214844 -4.78125 C 11.03125 -5.453125 11.0625 -6.128906 11 -6.832031 C 10.910156 -8.550781 11.15625 -10.296875 11.09375 -12.011719 C 11.09375 -12.320312 11.03125 -12.75 11.246094 -13.023438 C 12.378906 -13.117188 13.546875 -13.117188 14.648438 -13.117188 C 14.925781 -13.300781 14.894531 -13.484375 14.894531 -13.730469 C 14.894531 -14.15625 14.863281 -14.617188 14.894531 -15.046875 C 14.894531 -15.324219 14.925781 -15.660156 14.863281 -15.933594 C 14.585938 -16.027344 14.28125 -16.058594 14.003906 -16.027344 C 13.085938 -15.964844 12.136719 -16.121094 11.125 -15.996094 L 11.125 -20.257812 C 10.082031 -20.441406 9.164062 -20.257812 8.304688 -20.285156 Z M 8.304688 -20.285156 "/></g></g></g><g fill="#f8f8f8" fill-opacity="1"><g transform="translate(304.621818, 246.115383)"><g><path d="M 12.503906 -16.457031 C 11.183594 -16.488281 9.867188 -16.457031 8.550781 -16.363281 C 6.804688 -16.210938 5.117188 -15.78125 3.492188 -15.136719 C 3.1875 -15.015625 2.820312 -14.925781 2.636719 -14.464844 C 3.1875 -13.515625 3.921875 -11.921875 4.257812 -11.707031 C 4.351562 -11.613281 4.871094 -11.953125 5.179688 -12.105469 C 6.007812 -12.5625 6.558594 -12.625 7.417969 -12.839844 C 8.609375 -13.148438 9.683594 -13.332031 10.910156 -12.902344 C 11.953125 -12.535156 12.5625 -11.738281 12.441406 -10.601562 C 12.226562 -10.542969 11.859375 -10.632812 11.644531 -10.601562 C 11.09375 -10.574219 10.574219 -10.664062 10.019531 -10.664062 C 8.519531 -10.726562 7.019531 -10.542969 5.578125 -10.144531 C 4.136719 -9.746094 2.972656 -8.980469 2.207031 -7.691406 C 1.410156 -6.3125 1.195312 -4.871094 1.53125 -3.339844 C 1.898438 -1.714844 2.941406 -0.644531 4.445312 0 C 5.792969 0.550781 7.230469 0.519531 8.671875 0.335938 C 10.175781 0.121094 11.554688 -0.398438 12.75 -1.410156 C 12.871094 -1.5 12.960938 -1.625 13.148438 -1.625 C 13.820312 -1.285156 14.128906 -0.550781 14.710938 0.03125 C 16.332031 0.03125 17.957031 -0.152344 19.550781 0 C 19.734375 -0.246094 19.734375 -0.429688 19.703125 -0.644531 C 19.582031 -1.898438 19.613281 -3.277344 19.644531 -4.535156 C 19.675781 -6.464844 19.644531 -8.398438 19.613281 -10.328125 C 19.582031 -11.398438 19.277344 -12.410156 18.601562 -13.300781 C 18.265625 -13.730469 17.867188 -14.097656 17.4375 -14.433594 C 16.027344 -15.628906 14.402344 -16.394531 12.503906 -16.457031 Z M 12.5625 -7.660156 C 12.5625 -6.34375 12.472656 -5.117188 12.59375 -3.921875 C 12.257812 -3.492188 11.859375 -3.1875 11.398438 -3.003906 C 10.386719 -2.542969 9.007812 -3.277344 8.855469 -4.414062 C 8.671875 -6.007812 9.285156 -7.171875 11.09375 -7.570312 C 11.554688 -7.660156 12.042969 -7.660156 12.5625 -7.660156 Z M 12.5625 -7.660156 "/></g></g></g><g fill="#f8f8f8" fill-opacity="1"><g transform="translate(326.22627, 246.115383)"><g><path d="M 4.167969 -22.371094 C 3.21875 -22.0625 2.421875 -21.664062 2.054688 -20.65625 C 1.929688 -20.285156 1.839844 -19.917969 1.929688 -19.582031 C 2.175781 -17.925781 3.339844 -17.285156 4.71875 -17.191406 C 5.210938 -17.191406 5.667969 -17.128906 6.128906 -17.160156 C 7.386719 -17.253906 8.457031 -17.683594 9.101562 -18.9375 C 9.378906 -19.488281 9.40625 -20.65625 8.886719 -21.238281 C 8.457031 -21.695312 7.96875 -22.09375 7.324219 -22.339844 C 6.25 -22.769531 5.210938 -22.707031 4.167969 -22.371094 Z M 9.039062 -16.148438 C 6.710938 -16.089844 4.199219 -16.210938 2.082031 -16.058594 C 1.871094 -15.84375 1.839844 -15.660156 1.839844 -15.476562 C 1.871094 -15.015625 1.871094 -14.34375 1.898438 -13.914062 C 2.023438 -12.65625 1.960938 -11.582031 1.960938 -10.359375 C 1.960938 -9.132812 1.839844 -7.90625 1.839844 -6.648438 C 1.871094 -4.996094 1.992188 -3.371094 1.960938 -1.714844 C 1.960938 -1.164062 1.898438 -0.644531 1.992188 -0.03125 C 4.351562 0.03125 6.710938 0.03125 9.039062 -0.0625 C 9.316406 -0.335938 9.285156 -0.582031 9.253906 -0.828125 C 9.195312 -1.257812 9.164062 -1.65625 9.195312 -2.082031 C 9.195312 -3.585938 9.253906 -5.027344 9.253906 -6.496094 C 9.222656 -8 9.222656 -9.5 9.222656 -11 C 9.222656 -12.320312 9.285156 -13.851562 9.285156 -15.167969 C 9.316406 -15.476562 9.285156 -15.8125 9.039062 -16.148438 Z M 9.039062 -16.148438 "/></g></g></g><g fill="#f8f8f8" fill-opacity="1"><g transform="translate(337.288953, 246.115383)"><g><path d="M 9.101562 -21.695312 C 8.335938 -21.757812 7.539062 -21.695312 6.742188 -21.664062 C 5.578125 -21.574219 4.382812 -21.695312 3.21875 -21.695312 C 2.789062 -21.695312 2.207031 -21.820312 1.898438 -21.480469 C 1.871094 -20.992188 1.808594 -20.410156 1.839844 -19.828125 C 1.839844 -18.664062 1.871094 -17.5 1.898438 -16.332031 C 1.992188 -14.371094 1.777344 -12.441406 1.898438 -10.480469 C 1.992188 -9.007812 1.898438 -7.722656 1.898438 -6.222656 C 1.929688 -5.363281 1.871094 -4.503906 2.082031 -3.648438 C 2.453125 -2.296875 3.1875 -1.164062 4.445312 -0.492188 C 5.300781 -0.03125 6.191406 0.304688 7.203125 0.367188 C 8.671875 0.492188 10.019531 0.398438 11.460938 0.121094 C 11.980469 0.03125 12.5625 -0.183594 12.871094 -0.582031 C 12.960938 -1.441406 12.902344 -2.511719 12.871094 -3.371094 C 12.6875 -3.523438 12.441406 -3.402344 12.042969 -3.339844 C 11.523438 -3.21875 10.972656 -3.21875 10.449219 -3.371094 C 10.113281 -3.460938 9.835938 -3.648438 9.714844 -3.953125 C 9.4375 -4.597656 9.378906 -5.269531 9.347656 -5.976562 C 9.316406 -6.648438 9.316406 -7.324219 9.285156 -8 C 9.195312 -11.183594 9.316406 -14.1875 9.285156 -17.375 C 9.285156 -18.664062 9.253906 -19.980469 9.253906 -21.296875 C 9.253906 -21.421875 9.253906 -21.574219 9.101562 -21.695312 Z M 9.101562 -21.695312 "/></g></g></g><g fill="#f8f8f8" fill-opacity="1"><g transform="translate(350.374195, 246.115383)"><g><path d="M 10.972656 -16.304688 C 9.253906 -16.671875 7.570312 -16.519531 5.882812 -16.089844 C 4.8125 -15.8125 3.921875 -15.199219 3.15625 -14.371094 C 2.296875 -13.453125 1.808594 -12.378906 1.777344 -11.09375 C 1.746094 -9.777344 2.144531 -8.609375 3.308594 -7.816406 C 3.832031 -7.445312 4.351562 -7.078125 4.933594 -6.742188 C 5.976562 -6.191406 6.988281 -5.578125 8.121094 -5.179688 C 8.703125 -4.902344 9.253906 -4.566406 9.714844 -4.105469 C 9.960938 -3.859375 10.175781 -3.585938 9.992188 -3.21875 C 9.835938 -2.878906 9.53125 -2.757812 9.195312 -2.726562 C 8.273438 -2.636719 7.417969 -2.757812 6.527344 -3.003906 C 5.363281 -3.308594 4.320312 -3.738281 3.339844 -4.445312 C 3.1875 -4.535156 3.066406 -4.71875 2.789062 -4.6875 C 2.144531 -3.984375 1.746094 -3.125 1.378906 -2.207031 C 1.5625 -1.960938 1.683594 -1.777344 1.898438 -1.65625 C 2.511719 -1.316406 3.125 -0.949219 3.769531 -0.675781 C 5.027344 -0.214844 6.28125 0.09375 7.660156 0.277344 C 9.59375 0.519531 11.492188 0.460938 13.332031 -0.277344 C 15.261719 -1.011719 16.394531 -2.390625 16.519531 -4.503906 C 16.640625 -6.496094 15.597656 -7.785156 14.003906 -8.734375 C 12.75 -9.5 11.523438 -10.234375 10.265625 -10.910156 C 9.804688 -11.15625 9.378906 -11.429688 8.886719 -11.828125 C 8.058594 -12.503906 8.488281 -13.207031 9.007812 -13.453125 C 9.867188 -13.851562 11.828125 -13.421875 12.472656 -12.441406 C 12.71875 -12.105469 12.871094 -11.707031 13.117188 -11.398438 C 14.15625 -11.371094 15.199219 -11.183594 16.242188 -11.429688 C 16.332031 -12.289062 15.964844 -12.933594 15.597656 -13.574219 C 15.136719 -14.464844 14.496094 -15.136719 13.546875 -15.566406 C 12.6875 -15.875 11.828125 -16.089844 10.972656 -16.304688 Z M 10.972656 -16.304688 "/></g></g></g></svg>