<svg xmlns="http://www.w3.org/2000/svg" xmlns:xlink="http://www.w3.org/1999/xlink" width="500" zoomAndPan="magnify" viewBox="0 0 375 374.999991" height="500" preserveAspectRatio="xMidYMid meet" version="1.0"><defs><g/></defs><g fill="#f8f8f8" fill-opacity="1"><g transform="translate(123.507215, 283.290437)"><g><path d="M 8.566406 0 C 8.3125 0.25 8.566406 0.753906 8.816406 0.753906 C 9.070312 0.753906 9.070312 0.753906 9.070312 0.753906 C 9.320312 0.753906 9.574219 0.503906 9.824219 0.25 L 53.15625 -139.066406 L 96.488281 0.25 C 96.742188 0.503906 96.992188 0.753906 97.246094 0.753906 L 118.660156 0.753906 C 118.660156 0.753906 118.910156 0.753906 119.164062 0.503906 C 119.164062 0.25 119.164062 0.25 119.164062 0 L 64.496094 -175.847656 C 64.242188 -176.097656 64.242188 -176.097656 64.242188 -176.097656 C 64.242188 -176.097656 64.242188 -176.097656 63.992188 -176.097656 C 63.992188 -176.097656 63.992188 -176.351562 63.738281 -176.351562 C 63.738281 -176.351562 63.738281 -176.097656 63.738281 -176.097656 C 63.488281 -176.097656 63.488281 -176.097656 63.488281 -176.097656 C 63.488281 -176.097656 63.488281 -176.097656 63.234375 -175.847656 L 52.402344 -141.332031 Z M 8.566406 0 "/></g></g></g><g fill="#f8f8f8" fill-opacity="1"><g transform="translate(255.281273, 223.832404)"><g><path d="M 0.617188 -79.054688 C 0.617188 -98.355469 -6.777344 -116.425781 -20.535156 -129.980469 C -20.738281 -130.183594 -20.945312 -130.183594 -21.355469 -129.980469 C -21.5625 -129.773438 -21.5625 -129.363281 -21.355469 -129.15625 C -7.804688 -115.8125 -0.410156 -97.945312 -0.410156 -79.054688 C -0.410156 -49.074219 -32.238281 -24.640625 -71.457031 -24.640625 C -110.675781 -24.640625 -142.503906 -49.074219 -142.503906 -79.054688 C -142.503906 -97.945312 -135.113281 -115.8125 -121.765625 -129.15625 C -121.5625 -129.363281 -121.5625 -129.773438 -121.765625 -129.980469 C -121.972656 -130.183594 -122.382812 -130.183594 -122.585938 -129.980469 C -136.140625 -116.425781 -143.53125 -98.355469 -143.53125 -79.054688 C -143.53125 -59.753906 -136.140625 -41.683594 -122.585938 -27.925781 C -94.457031 0.207031 -48.664062 0.207031 -20.535156 -27.925781 C -6.777344 -41.683594 0.617188 -59.753906 0.617188 -79.054688 Z M 0.617188 -79.054688 "/></g></g></g></svg>