<svg xmlns="http://www.w3.org/2000/svg" xmlns:xlink="http://www.w3.org/1999/xlink" width="500" zoomAndPan="magnify" viewBox="0 0 375 374.999991" height="500" preserveAspectRatio="xMidYMid meet" version="1.0"><defs><g/><clipPath id="4effc08a5b"><path d="M 33.199219 33.199219 L 341.449219 33.199219 L 341.449219 341.449219 L 33.199219 341.449219 Z M 33.199219 33.199219 " clip-rule="nonzero"/></clipPath></defs><g clip-path="url(#4effc08a5b)"><path fill="#000000" d="M 341.449219 187.324219 C 341.449219 189.847656 341.386719 192.367188 341.265625 194.886719 C 341.140625 197.40625 340.957031 199.921875 340.707031 202.433594 C 340.460938 204.941406 340.152344 207.445312 339.78125 209.941406 C 339.410156 212.433594 338.980469 214.917969 338.488281 217.394531 C 337.996094 219.867188 337.445312 222.328125 336.832031 224.773438 C 336.21875 227.222656 335.546875 229.652344 334.8125 232.066406 C 334.082031 234.480469 333.289062 236.875 332.441406 239.25 C 331.589844 241.625 330.683594 243.976562 329.71875 246.304688 C 328.753906 248.636719 327.730469 250.941406 326.652344 253.222656 C 325.574219 255.503906 324.441406 257.753906 323.25 259.980469 C 322.0625 262.203125 320.820312 264.398438 319.523438 266.5625 C 318.226562 268.726562 316.875 270.855469 315.476562 272.953125 C 314.074219 275.050781 312.621094 277.113281 311.121094 279.136719 C 309.617188 281.164062 308.066406 283.152344 306.464844 285.101562 C 304.867188 287.050781 303.21875 288.960938 301.523438 290.828125 C 299.832031 292.699219 298.089844 294.523438 296.308594 296.308594 C 294.523438 298.089844 292.699219 299.832031 290.828125 301.523438 C 288.960938 303.21875 287.050781 304.867188 285.101562 306.464844 C 283.152344 308.066406 281.164062 309.617188 279.136719 311.121094 C 277.113281 312.621094 275.050781 314.074219 272.953125 315.476562 C 270.855469 316.875 268.726562 318.226562 266.5625 319.523438 C 264.398438 320.820312 262.203125 322.0625 259.980469 323.25 C 257.753906 324.441406 255.503906 325.574219 253.222656 326.652344 C 250.941406 327.730469 248.636719 328.753906 246.304688 329.71875 C 243.976562 330.683594 241.625 331.589844 239.25 332.441406 C 236.875 333.289062 234.480469 334.082031 232.066406 334.8125 C 229.652344 335.546875 227.222656 336.21875 224.773438 336.832031 C 222.328125 337.445312 219.867188 337.996094 217.394531 338.488281 C 214.917969 338.980469 212.433594 339.410156 209.941406 339.78125 C 207.445312 340.152344 204.941406 340.460938 202.433594 340.707031 C 199.921875 340.957031 197.40625 341.140625 194.886719 341.265625 C 192.367188 341.386719 189.847656 341.449219 187.324219 341.449219 C 184.804688 341.449219 182.28125 341.386719 179.761719 341.265625 C 177.242188 341.140625 174.730469 340.957031 172.21875 340.707031 C 169.707031 340.460938 167.207031 340.152344 164.710938 339.78125 C 162.214844 339.410156 159.730469 338.980469 157.257812 338.488281 C 154.78125 337.996094 152.324219 337.445312 149.875 336.832031 C 147.429688 336.21875 145 335.546875 142.585938 334.8125 C 140.171875 334.082031 137.777344 333.289062 135.402344 332.441406 C 133.027344 331.589844 130.675781 330.683594 128.34375 329.71875 C 126.015625 328.753906 123.707031 327.730469 121.429688 326.652344 C 119.148438 325.574219 116.894531 324.441406 114.671875 323.25 C 112.445312 322.0625 110.253906 320.820312 108.089844 319.523438 C 105.925781 318.226562 103.796875 316.875 101.699219 315.476562 C 99.601562 314.074219 97.539062 312.621094 95.511719 311.121094 C 93.488281 309.617188 91.5 308.066406 89.550781 306.464844 C 87.601562 304.867188 85.691406 303.21875 83.820312 301.523438 C 81.953125 299.832031 80.125 298.089844 78.34375 296.308594 C 76.558594 294.523438 74.820312 292.699219 73.125 290.828125 C 71.433594 288.960938 69.785156 287.050781 68.183594 285.101562 C 66.585938 283.152344 65.035156 281.164062 63.53125 279.136719 C 62.027344 277.113281 60.578125 275.050781 59.175781 272.953125 C 57.773438 270.855469 56.425781 268.726562 55.128906 266.5625 C 53.832031 264.398438 52.589844 262.203125 51.398438 259.980469 C 50.210938 257.753906 49.078125 255.503906 47.996094 253.222656 C 46.917969 250.941406 45.898438 248.636719 44.933594 246.304688 C 43.96875 243.976562 43.058594 241.625 42.210938 239.25 C 41.359375 236.875 40.570312 234.480469 39.835938 232.066406 C 39.105469 229.652344 38.433594 227.222656 37.820312 224.773438 C 37.207031 222.328125 36.652344 219.867188 36.160156 217.394531 C 35.667969 214.917969 35.238281 212.433594 34.867188 209.941406 C 34.5 207.445312 34.191406 204.941406 33.941406 202.433594 C 33.695312 199.921875 33.511719 197.40625 33.386719 194.886719 C 33.261719 192.367188 33.199219 189.847656 33.199219 187.324219 C 33.199219 184.804688 33.261719 182.28125 33.386719 179.761719 C 33.511719 177.242188 33.695312 174.730469 33.941406 172.21875 C 34.191406 169.707031 34.5 167.207031 34.867188 164.710938 C 35.238281 162.214844 35.667969 159.730469 36.160156 157.257812 C 36.652344 154.78125 37.207031 152.324219 37.820312 149.875 C 38.433594 147.429688 39.105469 145 39.835938 142.585938 C 40.570312 140.171875 41.359375 137.777344 42.210938 135.402344 C 43.058594 133.027344 43.96875 130.675781 44.933594 128.34375 C 45.898438 126.015625 46.917969 123.707031 47.996094 121.429688 C 49.078125 119.148438 50.210938 116.894531 51.398438 114.671875 C 52.589844 112.445312 53.832031 110.253906 55.128906 108.089844 C 56.425781 105.925781 57.773438 103.796875 59.175781 101.699219 C 60.578125 99.601562 62.027344 97.539062 63.53125 95.511719 C 65.035156 93.488281 66.585938 91.5 68.183594 89.550781 C 69.785156 87.601562 71.433594 85.691406 73.125 83.820312 C 74.820312 81.953125 76.558594 80.125 78.34375 78.34375 C 80.125 76.558594 81.953125 74.820312 83.820312 73.125 C 85.691406 71.433594 87.601562 69.785156 89.550781 68.183594 C 91.5 66.585938 93.488281 65.035156 95.511719 63.53125 C 97.539062 62.027344 99.601562 60.578125 101.699219 59.175781 C 103.796875 57.773438 105.925781 56.425781 108.089844 55.128906 C 110.253906 53.832031 112.445312 52.589844 114.671875 51.398438 C 116.894531 50.210938 119.148438 49.078125 121.429688 47.996094 C 123.707031 46.917969 126.015625 45.898438 128.34375 44.933594 C 130.675781 43.96875 133.027344 43.058594 135.402344 42.210938 C 137.777344 41.359375 140.171875 40.570312 142.585938 39.835938 C 145 39.105469 147.429688 38.433594 149.875 37.820312 C 152.324219 37.207031 154.78125 36.652344 157.257812 36.160156 C 159.730469 35.667969 162.214844 35.238281 164.710938 34.867188 C 167.207031 34.5 169.707031 34.191406 172.21875 33.941406 C 174.730469 33.695312 177.242188 33.511719 179.761719 33.386719 C 182.28125 33.261719 184.804688 33.199219 187.324219 33.199219 C 189.847656 33.199219 192.367188 33.261719 194.886719 33.386719 C 197.40625 33.511719 199.921875 33.695312 202.433594 33.941406 C 204.941406 34.191406 207.445312 34.5 209.941406 34.867188 C 212.433594 35.238281 214.917969 35.667969 217.394531 36.160156 C 219.867188 36.652344 222.328125 37.207031 224.773438 37.820312 C 227.222656 38.433594 229.652344 39.105469 232.066406 39.835938 C 234.480469 40.570312 236.875 41.359375 239.25 42.210938 C 241.625 43.058594 243.976562 43.96875 246.304688 44.933594 C 248.636719 45.898438 250.941406 46.917969 253.222656 47.996094 C 255.503906 49.078125 257.753906 50.210938 259.980469 51.398438 C 262.203125 52.589844 264.398438 53.832031 266.5625 55.128906 C 268.726562 56.425781 270.855469 57.773438 272.953125 59.175781 C 275.050781 60.578125 277.113281 62.027344 279.136719 63.53125 C 281.164062 65.035156 283.152344 66.585938 285.101562 68.183594 C 287.050781 69.785156 288.960938 71.433594 290.828125 73.125 C 292.699219 74.820312 294.523438 76.558594 296.308594 78.34375 C 298.089844 80.125 299.832031 81.953125 301.523438 83.820312 C 303.21875 85.691406 304.867188 87.601562 306.464844 89.550781 C 308.066406 91.5 309.617188 93.488281 311.121094 95.511719 C 312.621094 97.539062 314.074219 99.601562 315.476562 101.699219 C 316.875 103.796875 318.226562 105.925781 319.523438 108.089844 C 320.820312 110.253906 322.0625 112.445312 323.25 114.671875 C 324.441406 116.894531 325.574219 119.148438 326.652344 121.429688 C 327.730469 123.707031 328.753906 126.015625 329.71875 128.34375 C 330.683594 130.675781 331.589844 133.027344 332.441406 135.402344 C 333.289062 137.777344 334.082031 140.171875 334.8125 142.585938 C 335.546875 145 336.21875 147.429688 336.832031 149.875 C 337.445312 152.324219 337.996094 154.78125 338.488281 157.257812 C 338.980469 159.730469 339.410156 162.214844 339.78125 164.710938 C 340.152344 167.207031 340.460938 169.707031 340.707031 172.21875 C 340.957031 174.730469 341.140625 177.242188 341.265625 179.761719 C 341.386719 182.28125 341.449219 184.804688 341.449219 187.324219 Z M 341.449219 187.324219 " fill-opacity="1" fill-rule="nonzero"/></g><g fill="#f8f8f8" fill-opacity="1"><g transform="translate(123.507215, 283.290437)"><g><path d="M 8.566406 0 C 8.3125 0.25 8.566406 0.753906 8.816406 0.753906 C 9.070312 0.753906 9.070312 0.753906 9.070312 0.753906 C 9.320312 0.753906 9.574219 0.503906 9.824219 0.25 L 53.15625 -139.066406 L 96.488281 0.25 C 96.742188 0.503906 96.992188 0.753906 97.246094 0.753906 L 118.660156 0.753906 C 118.660156 0.753906 118.910156 0.753906 119.164062 0.503906 C 119.164062 0.25 119.164062 0.25 119.164062 0 L 64.496094 -175.847656 C 64.242188 -176.097656 64.242188 -176.097656 64.242188 -176.097656 C 64.242188 -176.097656 64.242188 -176.097656 63.992188 -176.097656 C 63.992188 -176.097656 63.992188 -176.351562 63.738281 -176.351562 C 63.738281 -176.351562 63.738281 -176.097656 63.738281 -176.097656 C 63.488281 -176.097656 63.488281 -176.097656 63.488281 -176.097656 C 63.488281 -176.097656 63.488281 -176.097656 63.234375 -175.847656 L 52.402344 -141.332031 Z M 8.566406 0 "/></g></g></g><g fill="#f8f8f8" fill-opacity="1"><g transform="translate(255.281273, 223.832404)"><g><path d="M 0.617188 -79.054688 C 0.617188 -98.355469 -6.777344 -116.425781 -20.535156 -129.980469 C -20.738281 -130.183594 -20.945312 -130.183594 -21.355469 -129.980469 C -21.5625 -129.773438 -21.5625 -129.363281 -21.355469 -129.15625 C -7.804688 -115.8125 -0.410156 -97.945312 -0.410156 -79.054688 C -0.410156 -49.074219 -32.238281 -24.640625 -71.457031 -24.640625 C -110.675781 -24.640625 -142.503906 -49.074219 -142.503906 -79.054688 C -142.503906 -97.945312 -135.113281 -115.8125 -121.765625 -129.15625 C -121.5625 -129.363281 -121.5625 -129.773438 -121.765625 -129.980469 C -121.972656 -130.183594 -122.382812 -130.183594 -122.585938 -129.980469 C -136.140625 -116.425781 -143.53125 -98.355469 -143.53125 -79.054688 C -143.53125 -59.753906 -136.140625 -41.683594 -122.585938 -27.925781 C -94.457031 0.207031 -48.664062 0.207031 -20.535156 -27.925781 C -6.777344 -41.683594 0.617188 -59.753906 0.617188 -79.054688 Z M 0.617188 -79.054688 "/></g></g></g></svg>